<svg xmlns="http://www.w3.org/2000/svg" width="168.696" height="168.697" viewBox="0 0 168.696 168.697">
  <g id="open-book" transform="translate(-0.002 0)" opacity="0.35">
    <g id="Grupo_6" data-name="Grupo 6" transform="translate(0.002 0)">
      <g id="Grupo_5" data-name="Grupo 5">
        <path id="Caminho_3" data-name="Caminho 3" d="M290.435,211.6a2.815,2.815,0,0,0,3.784,1.229c.166-.084,16.715-8.491,24.877-11.069a2.813,2.813,0,0,0-1.7-5.364c-8.6,2.719-25.035,11.069-25.732,11.424A2.813,2.813,0,0,0,290.435,211.6Z" transform="translate(-194.537 -131.6)"/>
        <path id="Caminho_4" data-name="Caminho 4" d="M292.946,110.738a2.806,2.806,0,0,0,1.274-.306c.166-.084,16.715-8.491,24.877-11.069A2.813,2.813,0,0,0,317.4,94c-8.6,2.719-25.035,11.069-25.732,11.424a2.811,2.811,0,0,0,1.279,5.317Z" transform="translate(-194.538 -62.94)"/>
        <path id="Caminho_5" data-name="Caminho 5" d="M165.886,42.175a2.811,2.811,0,0,0-2.811,2.811V154.639a8.445,8.445,0,0,1-8.435,8.435H87.162V156.6c4.1-1.434,14.778-4.777,25.3-4.777,24.492,0,41.123,5.424,41.288,5.48a2.811,2.811,0,0,0,3.7-2.668V30.929a2.807,2.807,0,0,0-2.2-2.744s-2.2-.492-5.972-1.184a2.812,2.812,0,0,0-1.018,5.53c1.437.264,2.64.5,3.568.683V150.9a158.784,158.784,0,0,0-39.362-4.7c-12.25,0-24.284,4.023-28.006,5.387A65.866,65.866,0,0,0,59.045,146.2a189.467,189.467,0,0,0-42.174,4.816V33.1a185.066,185.066,0,0,1,42.174-4.988,60.96,60.96,0,0,1,22.493,4.634V143.393a2.811,2.811,0,0,0,4.26,2.41c.278-.166,28.136-16.8,52.861-25.046a2.812,2.812,0,0,0,1.923-2.668V2.813a2.816,2.816,0,0,0-3.8-2.634c-22.5,8.437-45.258,22.6-45.486,22.743a2.812,2.812,0,1,0,2.98,4.769c.208-.132,20.01-12.453,40.684-20.766V116.075c-19.192,6.669-39.23,17.559-47.8,22.434V30.929a2.814,2.814,0,0,0-1.555-2.516,65.1,65.1,0,0,0-26.561-5.919,182.48,182.48,0,0,0-45.759,5.733,2.81,2.81,0,0,0-2.039,2.7v123.71a2.81,2.81,0,0,0,2.812,2.812,2.77,2.77,0,0,0,.77-.11,180.61,180.61,0,0,1,44.215-5.514,60.824,60.824,0,0,1,22.493,4.636v6.61H14.06a8.445,8.445,0,0,1-8.435-8.435V44.987a2.811,2.811,0,1,0-5.623,0V154.639A14.074,14.074,0,0,0,14.06,168.7H154.64A14.074,14.074,0,0,0,168.7,154.639V44.987A2.811,2.811,0,0,0,165.886,42.175Z" transform="translate(-0.002 0)"/>
        <path id="Caminho_6" data-name="Caminho 6" d="M290.435,160.4a2.815,2.815,0,0,0,3.784,1.229c.166-.084,16.715-8.491,24.877-11.069a2.813,2.813,0,0,0-1.7-5.364c-8.6,2.719-25.035,11.069-25.732,11.424A2.813,2.813,0,0,0,290.435,160.4Z" transform="translate(-194.537 -97.269)"/>
        <path id="Caminho_7" data-name="Caminho 7" d="M290.435,262.8a2.815,2.815,0,0,0,3.784,1.229c.166-.084,16.715-8.491,24.877-11.069a2.813,2.813,0,0,0-1.7-5.364c-8.6,2.719-25.035,11.069-25.732,11.424A2.813,2.813,0,0,0,290.435,262.8Z" transform="translate(-194.537 -165.93)"/>
        <path id="Caminho_8" data-name="Caminho 8" d="M125.337,155.2c-17.362-4.074-37.091,1.116-37.92,1.338a2.812,2.812,0,0,0,.726,5.527,2.86,2.86,0,0,0,.731-.1c.188-.053,19.184-5.05,35.182-1.3a2.811,2.811,0,1,0,1.282-5.474Z" transform="translate(-57.218 -103.021)"/>
        <path id="Caminho_9" data-name="Caminho 9" d="M125.337,206.4c-17.362-4.071-37.091,1.116-37.92,1.338a2.812,2.812,0,0,0,.726,5.527,2.859,2.859,0,0,0,.731-.1c.188-.053,19.184-5.05,35.182-1.3a2.811,2.811,0,1,0,1.282-5.474Z" transform="translate(-57.218 -137.354)"/>
        <path id="Caminho_10" data-name="Caminho 10" d="M290.435,314a2.815,2.815,0,0,0,3.784,1.229c.166-.084,16.715-8.491,24.877-11.069a2.813,2.813,0,0,0-1.7-5.364c-8.6,2.719-25.035,11.069-25.732,11.424A2.813,2.813,0,0,0,290.435,314Z" transform="translate(-194.537 -200.261)"/>
        <path id="Caminho_11" data-name="Caminho 11" d="M125.337,257.6c-17.362-4.071-37.091,1.113-37.92,1.338a2.813,2.813,0,0,0,.726,5.53,2.849,2.849,0,0,0,.731-.1c.188-.053,19.184-5.05,35.182-1.3a2.811,2.811,0,1,0,1.282-5.474Z" transform="translate(-57.218 -171.684)"/>
        <path id="Caminho_12" data-name="Caminho 12" d="M125.337,360c-17.362-4.074-37.091,1.116-37.92,1.338a2.813,2.813,0,0,0,.726,5.53,2.848,2.848,0,0,0,.731-.1c.188-.053,19.184-5.05,35.182-1.3A2.811,2.811,0,1,0,125.337,360Z" transform="translate(-57.218 -240.343)"/>
        <path id="Caminho_13" data-name="Caminho 13" d="M125.337,308.8c-17.362-4.074-37.091,1.113-37.92,1.338a2.813,2.813,0,0,0,.726,5.53,2.849,2.849,0,0,0,.731-.1c.188-.053,19.184-5.05,35.182-1.3a2.811,2.811,0,1,0,1.282-5.474Z" transform="translate(-57.218 -206.011)"/>
      </g>
    </g>
  </g>
</svg>
