<?xml version="1.0" encoding="utf-8"?>
<!-- Generator: Adobe Illustrator 25.0.0, SVG Export Plug-In . SVG Version: 6.00 Build 0)  -->
<svg version="1.1" id="Camada_1" xmlns="http://www.w3.org/2000/svg" xmlns:xlink="http://www.w3.org/1999/xlink" x="0px" y="0px"
	 viewBox="0 0 103.8 50.5" style="enable-background:new 0 0 103.8 50.5;" xml:space="preserve">
<style type="text/css">
	.st0{opacity:0.3;fill:#3586D3;enable-background:new    ;}
	.st1{fill:#C2DAF2;}
</style>
<g id="star-03">
	<path id="Icon_awesome-star-3" class="st0" d="M86.2,21.4l-3.8,7.7L74,30.3c-1,0.1-1.7,1.1-1.6,2.1c0.1,0.4,0.2,0.8,0.5,1.1l6.1,6
		l-1.4,8.4c-0.2,1,0.5,2,1.5,2.1c0.4,0.1,0.8,0,1.2-0.2l7.6-4l7.6,4c0.9,0.5,2,0.1,2.5-0.8c0.2-0.4,0.3-0.8,0.2-1.2l-1.4-8.4l6.1-6
		c0.7-0.7,0.7-1.9,0-2.6c-0.3-0.3-0.7-0.5-1.1-0.5l-8.5-1.2l-3.8-7.7c-0.5-0.9-1.6-1.3-2.5-0.8C86.7,20.7,86.4,21,86.2,21.4
		L86.2,21.4z"/>
</g>
<g id="star-02">
	<path id="Icon_awesome-star" class="st1" d="M49.7,2l-5,10.1l-11.1,1.6c-1.3,0.2-2.3,1.4-2.1,2.8c0.1,0.5,0.3,1,0.7,1.4l8.1,7.8
		l-1.9,11.1c-0.2,1.3,0.7,2.6,2,2.8c0.5,0.1,1.1,0,1.5-0.2l10-5.2l10,5.2c1.2,0.6,2.7,0.2,3.3-1c0.2-0.5,0.3-1,0.2-1.5l-1.9-11.1
		l8-7.8c1-0.9,1-2.5,0-3.4c-0.4-0.4-0.9-0.6-1.4-0.7L59,12.1L54.1,2c-0.6-1.2-2.1-1.7-3.3-1.1C50.3,1.2,49.9,1.6,49.7,2z"/>
</g>
<g id="star-01">
	<path id="Icon_awesome-star-2" class="st1" d="M14.2,21.4l-3.8,7.7L2,30.3c-1,0.1-1.7,1.1-1.6,2.1c0.1,0.4,0.2,0.8,0.5,1.1l6.1,6
		l-1.4,8.4c-0.2,1,0.5,2,1.5,2.1c0.4,0.1,0.8,0,1.2-0.2l7.6-4l7.6,4c0.9,0.5,2,0.1,2.5-0.8c0.2-0.4,0.3-0.8,0.2-1.2l-1.4-8.4l6.1-6
		c0.7-0.7,0.7-1.9,0-2.6c-0.3-0.3-0.7-0.5-1.1-0.5l-8.5-1.2l-3.8-7.7c-0.5-0.9-1.6-1.3-2.5-0.8C14.7,20.7,14.4,21,14.2,21.4
		L14.2,21.4z"/>
</g>
</svg>
