<svg xmlns="http://www.w3.org/2000/svg" xmlns:xlink="http://www.w3.org/1999/xlink" width="227.608" height="227.608" viewBox="0 0 227.608 227.608">
  <defs>
    <clipPath id="clip-path">
      <rect id="Retângulo_35" data-name="Retângulo 35" width="227.608" height="227.608" fill="none"/>
    </clipPath>
  </defs>
  <g id="Grupo_57" data-name="Grupo 57" clip-path="url(#clip-path)">
    <path id="Caminho_40" data-name="Caminho 40" d="M227.608,113.8a113.8,113.8,0,1,0-113.8,113.8,113.8,113.8,0,0,0,113.8-113.8" transform="translate(0 -0.001)" fill="#e8354d"/>
    <path id="Caminho_41" data-name="Caminho 41" d="M47.112,68.718A10.247,10.247,0,1,0,36.864,78.966,10.247,10.247,0,0,0,47.112,68.718" transform="translate(14.059 30.882)" fill="#701a25"/>
    <path id="Caminho_42" data-name="Caminho 42" d="M128.29,68.718a10.248,10.248,0,1,0-10.248,10.248A10.247,10.247,0,0,0,128.29,68.718" transform="translate(56.934 30.882)" fill="#701a25"/>
    <path id="Caminho_43" data-name="Caminho 43" d="M96.078,111.383l-38.272-13.5a7.079,7.079,0,0,1-4.322-9.03l.154-.44a7.082,7.082,0,0,1,9.033-4.322l38.27,13.5a7.079,7.079,0,0,1,4.322,9.03l-.156.44a7.078,7.078,0,0,1-9.03,4.322" transform="translate(28.035 44.202)" fill="#701a25"/>
  </g>
</svg>
