<svg xmlns="http://www.w3.org/2000/svg" width="169.781" height="190.509" viewBox="0 0 169.781 190.509">
  <path id="XMLID_1007_" d="M195.8,65.393a82.152,82.152,0,0,0-127.1-50.8l-3.819,2.644L76.067,42.352a57.244,57.244,0,0,0-6.852,3.858c-9.111,6-16.841,14.809-23.045,26.232q-2.524-2.269-4.927-4.756L31.559,57.65,29.615,72.587c-2.3,17.566-2.306,17.923-.957,38.172l.5,7.469,5.283-.04c.109.012,11.3.109,18.447,7.206,3.759,3.731,5.849,8.9,6.226,15.385L56.89,143.1c-2.362,1.71-10.371,8.159-10.371,16.924V179.3h-11.7v11.206H62.443c8.879,0,16.48-2.016,21.982-5.829,6.67-4.622,10.195-11.691,10.195-20.443V128.453a20.553,20.553,0,0,0,9.278-2.914c4.81,5.022,8.223,11.581,9.013,17.626,3.672,28.1,19.747,44.459,20.43,45.142l1.641,1.641h9.925a38.029,38.029,0,0,0,16.047-3.521,38.517,38.517,0,0,0,13.1-9.917l2.744-3.215-2.338-3.522c-7.8-11.756-11.767-20.2-11.767-33.725V108.722h30.537l1.162-4.062A82.3,82.3,0,0,0,195.8,65.393ZM62.444,179.3H57.725V160.02c0-2.682,3.565-6.368,5.957-8l.5-.337,6.2-6.461v-2.252c0-10.615-3.23-19.2-9.6-25.526-6.807-6.755-15.579-9.149-21.11-10-.9-13.577-1.009-16.664.076-25.716A97.864,97.864,0,0,0,73.63,101.19a20.672,20.672,0,0,0,9.784,24.831v38.217c0,12.451-11.4,15.065-20.971,15.065Zm30.791-62a9.49,9.49,0,1,1,9.49-9.491A9.5,9.5,0,0,1,93.235,117.3Zm63.028,58.95a26.909,26.909,0,0,1-11.356,2.492h-5.1a73.66,73.66,0,0,1-15.78-37.028c-1.124-8.6-5.76-17.555-12.439-24.348a20.68,20.68,0,0,0-31.165-25.79A86.12,86.12,0,0,1,55.1,79.525c10.87-21.1,26.964-31.8,47.9-31.8a48.542,48.542,0,0,1,48.487,48.487v39.831c0,14.7,3.9,24.523,11.156,36.087a27.2,27.2,0,0,1-6.382,4.114Zm28.386-78.734H162.695v-1.3A59.5,59.5,0,0,0,160.042,78.6l11.321-3.3-3.138-10.758L155.7,68.2A60.048,60.048,0,0,0,144.137,53L152,42.8l-8.874-6.843-7.791,10.1a59.368,59.368,0,0,0-18.98-8.03V25.887H105.149V36.566c-.713-.025-1.428-.043-2.148-.043a65.64,65.64,0,0,0-16.372,2L78.956,21.3A70.944,70.944,0,0,1,184.649,97.515Z" transform="translate(-27.745)" opacity="0.35"/>
</svg>
