<svg xmlns="http://www.w3.org/2000/svg" width="188" height="188" viewBox="0 0 188 188">
  <g id="football" transform="translate(6 4.667)" opacity="0.35">
    <g id="Grupo_7" data-name="Grupo 7" transform="translate(-6 -4.667)">
      <path id="Caminho_14" data-name="Caminho 14" d="M116.74,17.953a2.754,2.754,0,1,0-3.686,4.092,64.317,64.317,0,0,1,6.618,6.928l-7.985,24.572L95.581,59.431,72.7,42.81V25.146L93.576,9.986a63.966,63.966,0,0,1,10.492,5.283,2.754,2.754,0,0,0,2.92-4.67A69.941,69.941,0,0,0,10.368,33.29a2.754,2.754,0,1,0,4.689,2.89q.556-.9,1.142-1.783L22.77,54.619,5.571,67.111A63.989,63.989,0,0,1,10.012,46.24a2.754,2.754,0,1,0-5.12-2.028A69.957,69.957,0,1,0,116.74,17.953Zm7.537,86.621-25.86-.068L88.588,91.624l8.765-26.975,16.105-5.887,20.809,15.113a64.012,64.012,0,0,1-9.99,30.7Zm-.583-70.156a64.561,64.561,0,0,1,10.629,32.689L117.128,54.619ZM83.523,89.392H56.376L47.987,63.573,69.949,47.617,91.911,63.573Zm3.632-81.55-17.205,12.5L52.748,7.845a64.523,64.523,0,0,1,34.407,0ZM20.227,28.971A64.852,64.852,0,0,1,38.039,13.947a63.7,63.7,0,0,1,8.286-3.959L67.2,25.146V42.81L44.318,59.432,28.212,53.545Zm6.213,29.79,16.105,5.887,8.765,26.975-9.883,12.954h-25.8a64.025,64.025,0,0,1-9.993-30.7Zm-6.868,51.324H40.789l6.57,20.215a64.729,64.729,0,0,1-27.787-20.215Zm71.972,20.58,1.675-5.155a2.754,2.754,0,1,0-5.238-1.7L85.13,132.58a64.6,64.6,0,0,1-31.316-.235l-7.96-24.492L55.738,94.9H84.16l9.267,12.147-1.8,5.549a2.754,2.754,0,1,0,5.238,1.7l1.392-4.285,22.083.058a64.706,64.706,0,0,1-28.794,20.593Z" transform="translate(0 0)"/>
      <path id="Caminho_15" data-name="Caminho 15" d="M136.659,386.64a2.754,2.754,0,1,0-3.895,3.894L157.33,415.1a2.754,2.754,0,1,0,3.9-3.894Z" transform="translate(-83.504 -244.16)"/>
      <path id="Caminho_16" data-name="Caminho 16" d="M239.556,387.939a2.754,2.754,0,1,0-3.895,3.894L259.53,415.7a2.754,2.754,0,0,0,3.9-3.894Z" transform="translate(-148.619 -244.982)"/>
      <path id="Caminho_17" data-name="Caminho 17" d="M430.6,280.166a2.754,2.754,0,0,0,1.948-4.7L408.682,251.6a2.754,2.754,0,0,0-3.895,3.894l23.869,23.869A2.744,2.744,0,0,0,430.6,280.166Z" transform="translate(-255.644 -158.703)"/>
      <path id="Caminho_18" data-name="Caminho 18" d="M426.275,173.188a2.754,2.754,0,0,0,3.9-3.894l-30.453-30.453a2.754,2.754,0,0,0-3.895,3.894Z" transform="translate(-249.971 -87.35)"/>
      <path id="Caminho_19" data-name="Caminho 19" d="M447.907,378.393a2.754,2.754,0,0,0,3.9-3.894l-14.556-14.556a2.754,2.754,0,0,0-3.895,3.894Z" transform="translate(-273.719 -227.266)"/>
      <path id="Caminho_20" data-name="Caminho 20" d="M339.772,413.485a2.754,2.754,0,1,0-3.895,3.894l14.556,14.556a2.754,2.754,0,0,0,3.9-3.894Z" transform="translate(-212.037 -261.148)"/>
      <path id="Caminho_21" data-name="Caminho 21" d="M403.786,399.891l-56.815-56.815a2.754,2.754,0,1,0-3.895,3.894l56.815,56.815a2.754,2.754,0,1,0,3.895-3.894Z" transform="translate(-216.592 -216.592)"/>
    </g>
  </g>
</svg>
