<svg xmlns="http://www.w3.org/2000/svg" width="213.253" height="188.448" viewBox="0 0 213.253 188.448">
  <g id="brainstorm" transform="translate(-0.001 -0.001)" opacity="0.35">
    <path id="Caminho_25" data-name="Caminho 25" d="M202.083,75a4.125,4.125,0,0,0,.3-.851c2.3-9.912-2.374-16.568-6.4-19.721-.913-7.434-7.92-12.189-13.655-14.485-.584-7-3.243-12.689-7.927-16.934-7.666-6.946-18.65-7.883-24.021-7.883h-.164c-5.232-8.944-17.205-9.357-24.187-8.06a95.134,95.134,0,0,0-12.287-3.314,4.181,4.181,0,1,0-1.619,8.2,87.551,87.551,0,0,1,12.228,3.381,4.162,4.162,0,0,0,2.354.13c.14-.033,13.938-3.169,16.965,5.348a4.194,4.194,0,0,0,4.342,2.761c.132-.013,13.3-1.17,20.8,5.654a15.822,15.822,0,0,1,4.931,9.4c-5.641.27-14.439,2.252-19.019,11.321a4.181,4.181,0,1,0,7.463,3.771c3.856-7.631,13.437-6.864,15.176-6.656,1.546.508,10.714,3.776,10.344,9.38a4.181,4.181,0,0,0,2.255,3.989,9.812,9.812,0,0,1,2.785,2.593,10.529,10.529,0,0,1,1.656,8.41l-.281.374c-6.49.713-16.25,4.8-17.583,16.869a4.183,4.183,0,0,0,3.7,4.616,4.472,4.472,0,0,0,.464.024,4.181,4.181,0,0,0,4.15-3.723c.844-7.65,7.414-9.171,10.247-9.471,18.321,13.439,5.389,44.78,4.533,46.789-4.536,8.672-10.229,13.109-17.365,13.514-3.059-2.556-11.067-8.239-25.062-11.592a4.181,4.181,0,1,0-1.949,8.132c11.958,2.865,18.785,7.572,21.3,9.6a15.611,15.611,0,0,1-.462,3.383c-2.974,11.815-18.966,18.012-35.649,13.811a43.04,43.04,0,0,1-7.949-2.85,4.181,4.181,0,0,0-5.961,3.409,56.685,56.685,0,0,0,.688,15.557L116.247,181.7c-.469-1.663-.939-3.607-1.448-5.72-2.453-10.161-6-24.818-16.416-36.845a161.677,161.677,0,0,1,24.883-4.152,4.181,4.181,0,1,0-.683-8.333,177.623,177.623,0,0,0-33.13,6.178,92.054,92.054,0,0,1-18.9.789c-18.125-2.724-23.186-13.675-22.008-22.238a4.182,4.182,0,0,0-5.135-4.632l-3.031.742c-5.286-.262-18.5-2.309-24.445-9.233-2.584-3.01-3.573-6.645-3.021-11.112a4.181,4.181,0,0,0-2.2-4.209,5.264,5.264,0,0,1-2.235-2.971c-.521-2.25.989-4.944,2.348-6.807a4.183,4.183,0,0,0,.547-3.9c-.033-.088-3.116-8.983.405-16.366,1.959-4.108,5.714-7.138,11.163-9a4.14,4.14,0,0,0,2.811-3.6c0-.054.537-5.356,4.4-8.236,2.668-1.988,6.518-2.5,11.439-1.513a4.182,4.182,0,0,0,4.949-3.441c.015-.091,1.887-8.792,18.2-9.1,2.475,3.379,7.935,12.258,3.884,20.212A4.182,4.182,0,1,0,76.075,42a21.556,21.556,0,0,0,2.343-8.792c2.257-.96,5.771-1.991,8.576-1.157A7.042,7.042,0,0,1,91.283,36.1,4.182,4.182,0,0,0,98.8,32.432a15.349,15.349,0,0,0-9.427-8.4,20.2,20.2,0,0,0-12.04.636,37.522,37.522,0,0,0-4.318-9.362,54.635,54.635,0,0,1,7.9-2.717A4.181,4.181,0,1,0,78.792,4.5,57.278,57.278,0,0,0,65.648,9.619c-16.935,0-23.482,7.4-25.947,12.191-5.836-.552-10.751.657-14.649,3.607A20.37,20.37,0,0,0,17.9,36.858C11.472,39.549,6.879,43.722,4.226,49.286c-3.851,8.078-2.367,16.769-1.35,20.7C.318,74.119-.54,78.1.329,81.849a13.023,13.023,0,0,0,4.084,6.76A21.335,21.335,0,0,0,9.587,103.7c9.007,10.486,26.959,11.952,30.5,12.141C41,127.5,49.881,139.008,69.437,141.9c.062.01.125.018.189.024.174.018,2.34.229,6,.229a111.168,111.168,0,0,0,13.3-.833c11.535,10.9,15.113,25.7,17.747,36.617a75.348,75.348,0,0,0,2.868,10.052,4.18,4.18,0,0,0,3.869,2.6,4.12,4.12,0,0,0,.688-.057l18.92-3.148a4.181,4.181,0,0,0,3.329-5.289,43.869,43.869,0,0,1-1.674-11.321c1.227.41,2.475.773,3.736,1.09,10.03,2.525,20.243,1.977,28.759-1.546,8.945-3.7,15-10.211,17.043-18.333a24.031,24.031,0,0,0,.6-3.418c7.138-.992,15.73-5.241,22.317-17.929.039-.075.075-.15.109-.226a80.219,80.219,0,0,0,5.688-21.876c1.539-14.579-2.2-26.074-10.832-33.539Zm0,0" transform="translate(0 -2.142)"/>
    <path id="Caminho_26" data-name="Caminho 26" d="M231.213,138.512a32.348,32.348,0,0,0,5.128,11.661,28.243,28.243,0,0,0,3.534,4.108c-.752,4.3-7.321,6.646-7.476,6.7a4.182,4.182,0,0,0,2.686,7.92c3.866-1.3,9.482-4.549,11.966-9.765a28.518,28.518,0,0,0,11.877,2.418c.3,0,.6,0,.909-.011a4.182,4.182,0,0,0-.106-8.363l-.107,0c-16.777.421-20.048-15.456-20.189-16.185a4.181,4.181,0,0,0-8.223,1.516Zm0,0" transform="translate(-133.95 -77.942)"/>
    <path id="Caminho_27" data-name="Caminho 27" d="M334.469,179.118c7.26-12.686,4.393-22.495.711-28.49a31.256,31.256,0,0,0-9.731-9.8,4.181,4.181,0,0,0-4.25,7.2,22.965,22.965,0,0,1,7,7.216c3.483,5.857,3.15,12.492-.988,19.722a4.182,4.182,0,1,0,7.26,4.154Zm0,0" transform="translate(-186.228 -81.834)"/>
    <path id="Caminho_28" data-name="Caminho 28" d="M418.212,240.164a4.181,4.181,0,1,0-4.86-6.806c-4.077,2.912-7.787,4.007-11.026,3.252-4.881-1.134-7.653-6.145-7.718-6.262a4.181,4.181,0,0,0-7.4,3.889c.164.314,3.788,7.113,11.023,9.846-1.3,5.115-2.12,14.142,5.439,20.463a4.181,4.181,0,1,0,5.364-6.415c-4.614-3.859-3.317-10.191-2.408-13.058a25.435,25.435,0,0,0,11.589-4.909Zm0,0" transform="translate(-225.653 -133.107)"/>
    <path id="Caminho_29" data-name="Caminho 29" d="M120.922,187.443a4.181,4.181,0,1,0-8.3,1.053c.726,5.722-3.763,9.887-6.422,11.818-6.692-3.313-14.186-2.05-14.558-1.985a4.182,4.182,0,0,0,1.437,8.239c.072-.013,7.129-1.144,11.353,2.517,2.411,2.091,3.578,5.587,3.465,10.392a4.182,4.182,0,0,0,4.084,4.277c.033,0,.065,0,.1,0a4.182,4.182,0,0,0,4.178-4.084c.132-5.623-1.066-10.25-3.563-13.816,4.1-3.4,9.342-9.585,8.223-18.413Zm0,0" transform="translate(-51.464 -107.238)"/>
    <path id="Caminho_30" data-name="Caminho 30" d="M57.923,119.736a9.355,9.355,0,0,1-2.014,2.945,13.465,13.465,0,0,1-5.223,3.2,4.181,4.181,0,0,0,2.206,8.065,21.8,21.8,0,0,0,9.572-6.047,15.942,15.942,0,0,0,9.666,3.155A19.173,19.173,0,0,0,75.2,130.8a24.334,24.334,0,0,0,8.675-3.249,4.181,4.181,0,1,0-4.549-7.017,16.525,16.525,0,0,1-5.455,2.011,7.922,7.922,0,0,1-7.352-2.146,23.07,23.07,0,0,0-.356-12,4.181,4.181,0,1,0-8.07,2.19c.96,3.54.934,6.5-.089,8.958-.026.06-.052.12-.078.182Zm0,0" transform="translate(-27.785 -61.452)"/>
    <path id="Caminho_31" data-name="Caminho 31" d="M281.246,50.93c-7.063-4.189-15.18-2.026-15.521-1.931a4.182,4.182,0,0,0,2.221,8.063c.049-.015,5.06-1.3,9.033,1.059,2.364,1.4,4,3.962,4.853,7.6a4.184,4.184,0,0,0,4.068,3.225,4.235,4.235,0,0,0,.96-.112,4.18,4.18,0,0,0,3.112-5.027c-1.4-5.94-4.333-10.274-8.725-12.881Zm0,0" transform="translate(-153.255 -28.215)"/>
    <path id="Caminho_32" data-name="Caminho 32" d="M233.493,240.9c-2.979,5.119-7.284,7.86-12.793,8.148a21.422,21.422,0,0,1-8.163-1.235,4.181,4.181,0,0,0-3.182,7.733,29.005,29.005,0,0,0,10.351,1.891q.517,0,1.053-.021c5.969-.226,14.28-2.546,19.963-12.31a4.182,4.182,0,1,0-7.229-4.206Zm0,0" transform="translate(-120.65 -139.351)"/>
    <path id="Caminho_33" data-name="Caminho 33" d="M332.887,300.1a4.181,4.181,0,1,0-.622,5.376A4.2,4.2,0,0,0,332.887,300.1Zm0,0" transform="translate(-189.767 -174.021)"/>
    <path id="Caminho_34" data-name="Caminho 34" d="M221.754,5.771a4.177,4.177,0,0,0,7.818-.255,4.179,4.179,0,1,0-7.818.255Zm0,0" transform="translate(-129.21 0)"/>
  </g>
</svg>
