<svg xmlns="http://www.w3.org/2000/svg" width="201.981" height="201.192" viewBox="0 0 201.981 201.192">
  <g id="conference" transform="translate(0 -1)" opacity="0.35">
    <g id="Grupo_8" data-name="Grupo 8" transform="translate(0 1)">
      <path id="Caminho_22" data-name="Caminho 22" d="M137.251,391.221v13.811a8.987,8.987,0,0,0,8.977,8.977h75.737a8.987,8.987,0,0,0,8.977-8.977V391.221a8.982,8.982,0,0,0-8.977-8.966H146.228A8.982,8.982,0,0,0,137.251,391.221Zm85.8,0v13.811a1.1,1.1,0,0,1-1.087,1.088H146.228a1.088,1.088,0,0,1-1.087-1.088V391.221a1.1,1.1,0,0,1,1.087-1.077h75.737A1.1,1.1,0,0,1,223.053,391.221Z" transform="translate(-83.106 -231.852)"/>
      <path id="Caminho_23" data-name="Caminho 23" d="M191.528,112.541h-1.982V95.736a1.831,1.831,0,0,0-.062-.639,3.92,3.92,0,0,0-.859-1.855l-9.175-10.955A12.8,12.8,0,0,0,178.414,67.3l-3.673-4.376a12.792,12.792,0,0,0-18-1.592l0,0a12.785,12.785,0,0,0-1.572,17.987l3.67,4.386a12.682,12.682,0,0,0,8.669,4.511q.577.051,1.148.051a12.683,12.683,0,0,0,4.75-.919l8.251,9.852v15.333H149.933c-.316-22.156-3.649-33.162-19.593-40.808l-6.331-6.478c4.664-4.707,7.938-10.5,7.938-16.607V31.963a30.962,30.962,0,1,0-61.923,0V48.649c0,6.106,3.275,11.9,7.942,16.611l-6.334,6.473c-15.945,7.646-19.279,18.652-19.594,40.808H20.313V97.209l8.251-9.852a12.691,12.691,0,0,0,4.752.919q.579,0,1.164-.052a12.649,12.649,0,0,0,8.649-4.507l3.677-4.381A12.772,12.772,0,0,0,27.234,62.921l-3.686,4.392a12.82,12.82,0,0,0-1.026,14.97L13.343,93.242a3.925,3.925,0,0,0-.908,2.264c-.006.061-.01.129-.011.2,0,.016,0,.032,0,.047s0,.011,0,.017v16.766h-1.97A10.464,10.464,0,0,0,0,122.995v6.8a10.465,10.465,0,0,0,10.453,10.453h4.831l14.324,56.07c.367,1.453,1.486,5.874,6.6,5.874H165.775c5.078,0,6.218-4.405,6.6-5.865L186.7,140.248h4.831a10.465,10.465,0,0,0,10.453-10.453V123a10.465,10.465,0,0,0-10.453-10.454ZM171.762,79.253a4.9,4.9,0,0,1-6.875-.6l-3.674-4.39a4.868,4.868,0,0,1,4.172-7.987,4.823,4.823,0,0,1,3.305,1.72l3.677,4.381A4.889,4.889,0,0,1,171.762,79.253ZM29.6,72.377l3.681-4.386a4.84,4.84,0,0,1,3.313-1.718q.222-.02.443-.02a4.884,4.884,0,0,1,3.729,8.008L37.08,78.653a4.9,4.9,0,0,1-6.868.6,4.9,4.9,0,0,1-.612-6.88ZM100.984,8.89a23.1,23.1,0,0,1,23.072,23.074v2.96c-7.895-.673-14.4-3.173-20.239-5.416-5.238-2.013-10.342-3.975-15.39-3.975a17.161,17.161,0,0,0-10.313,3.374A23.108,23.108,0,0,1,100.984,8.89ZM77.913,48.649V40.3c7.027-9.595,12.185-7.613,23.073-3.429,6.2,2.384,13.742,5.278,23.07,5.963v5.814c0,9.692-15,19.942-23.072,19.942S77.913,58.341,77.913,48.649Zm44.428,26.19-10.839,10-4.6-9.262A38.955,38.955,0,0,0,117.908,70.3Zm-27.272.735-4.6,9.262-10.838-10,4.437-4.535A38.937,38.937,0,0,0,95.07,75.574Zm-21.784,4.15L88.984,94.2a3.946,3.946,0,0,0,6.208-1.144L100.985,81.4l5.794,11.657a3.946,3.946,0,0,0,6.208,1.144l15.7-14.478c10.178,5.409,13.057,12.554,13.36,32.818H59.927c.3-20.264,3.182-27.41,13.359-32.818Zm120.8,50.071a2.566,2.566,0,0,1-2.563,2.563H118.686a3.945,3.945,0,0,0,0,7.89h59.867L164.744,194.3H37.236L23.427,140.248H83.25a3.945,3.945,0,1,0,0-7.89h-72.8a2.6,2.6,0,0,1-2.563-2.563V123a2.6,2.6,0,0,1,2.563-2.563H191.528A2.6,2.6,0,0,1,194.091,123Z" transform="translate(0 -1)"/>
      <path id="Caminho_24" data-name="Caminho 24" d="M249.9,341.869h.011a3.951,3.951,0,1,0-.011,0Z" transform="translate(-148.928 -202.621)"/>
    </g>
  </g>
</svg>
