<svg xmlns="http://www.w3.org/2000/svg" width="169.035" height="169" viewBox="0 0 169.035 169">
  <g id="worldwide" transform="translate(0 -0.05)" opacity="0.35">
    <g id="Grupo_4" data-name="Grupo 4" transform="translate(0 0.05)">
      <path id="Caminho_2" data-name="Caminho 2" d="M84.548.05A84.5,84.5,0,0,0,6.856,51.291L5.8,51.64l.408,1.225A84.494,84.494,0,1,0,84.548.05Zm66.281,127.1-4.339-4.336v-10.1a2.813,2.813,0,0,0-.282-1.259L135.223,89.519v-10.6a2.817,2.817,0,0,0-1.253-2.343l-8.45-5.633a2.818,2.818,0,0,0-2.253-.389l-10.348,2.586L95.536,65.678,93.144,48.925,99.772,42.3H114l4.788,7.2a2.817,2.817,0,0,0,1.882,1.214l16.9,2.817a2.793,2.793,0,0,0,1.352-.107l15.565-5.188A78.585,78.585,0,0,1,150.828,127.154ZM139.211,27.805l-4.58,3.053L121.863,28.3l-8.284-2.758a2.766,2.766,0,0,0-1.572-.062L101.535,28.1l-4.591-1.529,3.4-6.805h9.526a2.816,2.816,0,0,0,1.259-.3l9.746-4.873A79.156,79.156,0,0,1,139.211,27.805ZM53.672,11.973l6.76,4.507a2.813,2.813,0,0,0,1.1.434l13.65,2.276L73.85,23.175l-7.112,2.374a2.817,2.817,0,0,0-1.524,1.22L57.125,40.249l-12.993,7.8L24.978,50.781a2.817,2.817,0,0,0-2.422,2.786v8.45a2.816,2.816,0,0,0,.825,1.991l4.808,4.808v4.839L16.472,65.842l-4.25-12.751A79.32,79.32,0,0,1,53.672,11.973Zm-8.019,92.35-12.731-2.549-4.732-9.439V85.716L38.684,75.221l3.884,7.771a2.817,2.817,0,0,0,2.521,1.558H63.212l7.63,12.717a2.817,2.817,0,0,0,2.414,1.366h7.83l-1.972,9.878L68.451,119.175a2.818,2.818,0,0,0-.828,1.991v7.042l-10.14,7.605a2.817,2.817,0,0,0-1.127,2.253v10.174l-3.5-1.16-4.946-12.371V107.083A2.817,2.817,0,0,0,45.653,104.323Zm-8.467,43.3A78.847,78.847,0,0,1,9.1,61.521l2.341,7.019a2.815,2.815,0,0,0,1.107,1.453l14.041,9.36-3.2,3.205a2.816,2.816,0,0,0-.825,1.991V93a2.816,2.816,0,0,0,.3,1.259l5.633,11.267a2.818,2.818,0,0,0,1.972,1.5l11.83,2.363v25.86a2.818,2.818,0,0,0,.2,1.045l5.633,14.083A2.817,2.817,0,0,0,49.847,152l8.45,2.817a2.767,2.767,0,0,0,.876.146,2.817,2.817,0,0,0,2.817-2.817V139.475l10.14-7.605a2.817,2.817,0,0,0,1.127-2.253v-7.284L83.7,111.891a2.819,2.819,0,0,0,.769-1.439l2.817-14.083A2.816,2.816,0,0,0,84.523,93H74.85L67.22,80.283a2.817,2.817,0,0,0-2.414-1.366H46.83l-4.839-9.709a2.816,2.816,0,0,0-2.07-1.521,2.76,2.76,0,0,0-2.442.789l-3.656,3.642V67.65A2.816,2.816,0,0,0,33,65.659l-4.808-4.808V56.009l17.3-2.47a2.83,2.83,0,0,0,1.051-.375l14.083-8.45a2.815,2.815,0,0,0,.963-.963L69.5,30.56l7.461-2.49a2.788,2.788,0,0,0,1.78-1.78l2.817-8.45a2.817,2.817,0,0,0-2.208-3.662l-16.3-2.718-2.865-1.91a78.65,78.65,0,0,1,54.17,2.014l-5.146,2.569h-10.6a2.817,2.817,0,0,0-2.535,1.558L90.438,26.958a2.817,2.817,0,0,0,1.631,3.929l8.45,2.817a2.766,2.766,0,0,0,1.572.062l10.472-2.617,7.673,2.555a2.071,2.071,0,0,0,.338.09l14.083,2.817a2.8,2.8,0,0,0,2.115-.417l6.411-4.276a79.462,79.462,0,0,1,8.473,11.32L137.8,47.857l-15-2.5-4.957-7.436a2.816,2.816,0,0,0-2.329-1.253h-16.9a2.816,2.816,0,0,0-1.991.825l-8.45,8.45a2.817,2.817,0,0,0-.8,2.391L90.184,68.05a2.817,2.817,0,0,0,1.69,2.189l19.717,8.45a2.784,2.784,0,0,0,1.791.144l10.058-2.515,6.149,4.107v9.76a2.814,2.814,0,0,0,.282,1.259l10.985,21.939v10.6a2.816,2.816,0,0,0,.825,1.991l5.892,5.9A78.847,78.847,0,0,1,37.186,147.623Z" transform="translate(0 -0.05)"/>
    </g>
  </g>
</svg>
