<?xml version="1.0" encoding="utf-8"?>
<!-- Generator: Adobe Illustrator 25.0.0, SVG Export Plug-In . SVG Version: 6.00 Build 0)  -->
<svg version="1.1" id="Camada_1" xmlns="http://www.w3.org/2000/svg" xmlns:xlink="http://www.w3.org/1999/xlink" x="0px" y="0px"
	 viewBox="0 0 1295.7 412.4" style="enable-background:new 0 0 1295.7 412.4;" xml:space="preserve">
<style type="text/css">
	.st0{fill:#2F2E41;}
	.st1{fill:#FFFFFF;}
	.st2{fill:#3F3D56;}
	.st3{fill:none;stroke:#3F3D56;stroke-width:2;stroke-miterlimit:10;}
	.st4{fill:#2878CD;}
</style>
<g id="Group_9" transform="translate(104.492 -90.103)">
	<path id="Caminho_49" class="st0" d="M185.3,353.8c52.4,0,94.9-42.5,94.9-94.9s-42.5-94.9-94.9-94.9s-94.9,42.5-94.9,94.9
		c0,0,0,0,0,0C90.4,311.3,132.9,353.8,185.3,353.8C185.3,353.8,185.3,353.8,185.3,353.8z"/>
	<path id="Caminho_50" class="st0" d="M172.2,332.7h-29v52.7h29V332.7z"/>
	<path id="Caminho_51" class="st0" d="M230.2,332.7h-29v52.7h29V332.7z"/>
	<path id="Caminho_52" class="st0" d="M166.9,396c13.1,0,23.7-4.1,23.7-9.2s-10.6-9.2-23.7-9.2s-23.7,4.1-23.7,9.2
		C143.1,391.9,153.8,396,166.9,396z"/>
	<path id="Caminho_53" class="st0" d="M224.9,393.4c13.1,0,23.7-4.1,23.7-9.2s-10.6-9.2-23.7-9.2c-13.1,0-23.7,4.1-23.7,9.2
		C201.2,389.3,211.8,393.4,224.9,393.4z"/>
	<path id="Caminho_54" class="st1" d="M189.3,266.8c18.2,0,33-14.8,33-33s-14.8-33-33-33c-18.2,0-33,14.8-33,33
		C156.3,252,171.1,266.8,189.3,266.8z"/>
	<path id="Caminho_55" class="st2" d="M189.3,243.1c6.6,0,11.9-4.1,11.9-9.2s-5.3-9.2-11.9-9.2c-6.6,0-11.9,4.1-11.9,9.2
		C177.4,238.9,182.7,243.1,189.3,243.1z"/>
	<path id="Caminho_57" class="st0" d="M276.4,239.1c24.3-10.4,41.3-25,38-32.6s-25.6-5.4-49.8,5s-41.3,25-38,32.6
		C229.8,251.7,252.1,249.5,276.4,239.1z"/>
	<path id="Caminho_58" class="st0" d="M97.3,303.2c24.3-10.4,41.3-25,38-32.6c-3.3-7.6-25.6-5.4-49.8,5c-24.3,10.4-41.3,25-38,32.6
		C50.7,315.9,73.1,313.6,97.3,303.2z"/>
	<path id="Caminho_59" class="st1" d="M243.4,286.6c0,9.3-24.7,27.7-52.1,27.7s-53.4-17.2-53.4-26.5c0-9.3,25.9-7.2,53.4-7.2
		S243.4,277.3,243.4,286.6z"/>
	<path id="Caminho_60" class="st3" d="M-104.5,392.6h658.4l85.9,41.8l136.8,66.7L866,333.6h325.1"/>
</g>
<g id="elements">
	<g id="Camada_3">
		<path id="Caminho_61" class="st4" d="M481.4,319.7c9.5,0,17.1-7.7,17.1-17.1s-7.7-17.1-17.1-17.1c-9.5,0-17.1,7.7-17.1,17.1
			C464.2,312,471.9,319.7,481.4,319.7C481.4,319.7,481.4,319.7,481.4,319.7z"/>
		<path id="Caminho_62" class="st4" d="M744,361.6c9.5,0,17.1-7.7,17.1-17.1s-7.7-17.1-17.1-17.1c-9.5,0-17.1,7.7-17.1,17.1
			c0,0,0,0,0,0C726.9,353.9,734.6,361.6,744,361.6z"/>
		<path id="Caminho_63" class="st4" d="M934.4,327.3c9.5,0,17.1-7.7,17.1-17.1s-7.7-17.1-17.1-17.1s-17.1,7.7-17.1,17.1
			C917.2,319.6,924.9,327.3,934.4,327.3z"/>
	</g>
	<path id="Caminho_56" class="st4" d="M198.9,78.6c-7.7-34,16.8-68.4,54.6-76.8s74.7,12.4,82.4,46.4c7.7,34-17.4,46.6-55.2,54.9
		S206.6,112.6,198.9,78.6z"/>
</g>
</svg>
